# File created by Blade
# Date/Time:  Wed Jan 21 16:33:30 2015
# Frame Rate: 120.000 fps
#------------------------------------------------------
:FULLY-SPECIFIED
:DEGREES
781
root 26.858074 25.285451 -25.520453 -68.449172 91.312520 5.484616
Spine -50.356605 -0.159319 4.081899
Head -72.306959 4.802903 1.194978
LeftShoulder -22.653074 -59.523219 54.787457
LeftArm 29.355632 -41.518808 13.404641
LeftForeArm -26.864455 -0.000000 6.048557
LeftHand -4.783673 0.000000 93.240741
LeftHandThumb1 -26.253704 0.000000 33.147579
RightShoulder -12.621486 25.520720 -39.130423
RightArm -2.775745 69.594320 -36.247240
RightForeArm -11.325216 -0.000000 9.442265
RightHand -2.914738 0.000000 -98.336776
RightHandThumb1 -24.326973 -0.000000 -32.862282
LeftUpLeg 11.341736 4.888753 10.984399
LeftLeg 82.469365 -0.000000 -0.000000
LeftFoot -39.387729 26.860832 -16.667817
LeftToeBase 22.730446 -0.000000 -0.000000
RightUpLeg 11.087482 3.410230 -10.780312
RightLeg 81.596762 -0.000000 -0.000000
RightFoot -38.427643 -29.116352 23.631675
RightToeBase 19.912280 -0.000000 -0.000000
782
root 26.870733 25.279577 -25.516020 -66.860432 91.300428 7.157867
Spine -50.216930 -0.221355 4.098910
Head -72.347767 4.903296 1.087989
LeftShoulder -22.850978 -59.502070 54.910708
LeftArm 29.561605 -41.650629 13.177782
LeftForeArm -26.749138 0.000000 6.063200
LeftHand -4.740075 -0.000000 93.327365
LeftHandThumb1 -26.253704 0.000000 33.147579
RightShoulder -12.739966 25.657854 -39.105250
RightArm -2.271826 69.703886 -35.776405
RightForeArm -11.457735 -0.000000 9.489698
RightHand -2.908624 -0.000000 -98.384970
RightHandThumb1 -24.326973 -0.000000 -32.862282
LeftUpLeg 11.406170 4.848905 11.052927
LeftLeg 82.530572 -0.000000 -0.000000
LeftFoot -39.418399 26.820378 -16.675137
LeftToeBase 22.704278 -0.000000 -0.000000
RightUpLeg 11.182462 3.402688 -10.724623
RightLeg 81.632111 -0.000000 -0.000000
RightFoot -38.485263 -29.141169 23.641040
RightToeBase 19.962219 -0.000000 -0.000000
783
root 26.879544 25.271853 -25.515844 -66.862595 91.303739 7.193930
Spine -50.143617 -0.247954 4.100449
Head -72.332271 5.016081 0.968470
LeftShoulder -22.962201 -59.467527 54.961566
LeftArm 29.696071 -41.787279 13.004645
LeftForeArm -26.624491 0.000000 6.135045
LeftHand -4.727393 -0.000000 93.387727
LeftHandThumb1 -26.253704 0.000000 33.147579
RightShoulder -12.823348 25.786758 -39.101670
RightArm -1.837974 69.758773 -35.354178
RightForeArm -11.571968 -0.000000 9.553184
RightHand -2.966192 -0.000000 -98.418812
RightHandThumb1 -24.326973 -0.000000 -32.862282
LeftUpLeg 11.425931 4.845457 11.069872
LeftLeg 82.583681 -0.000000 -0.000000
LeftFoot -39.439593 26.813380 -16.692862
LeftToeBase 22.705519 -0.000000 -0.000000
RightUpLeg 11.212156 3.424529 -10.708626
RightLeg 81.682405 -0.000000 -0.000000
RightFoot -38.544272 -29.211648 23.615092
RightToeBase 20.133784 -0.000000 -0.000000
784
root 26.889005 25.264380 -25.513798 -66.412581 91.301487 7.666523
Spine -50.112443 -0.278362 4.103326
Head -72.245528 5.029186 0.980550
LeftShoulder -22.916829 -59.474276 54.915806
LeftArm 29.695201 -41.782853 13.032310
LeftForeArm -26.639763 -0.000000 6.183166
LeftHand -4.718976 0.000000 93.428617
LeftHandThumb1 -26.253704 0.000000 33.147579
RightShoulder -12.831903 25.798201 -39.069190
RightArm -1.708290 69.782861 -35.224653
RightForeArm -11.582046 -0.000000 9.588751
RightHand -2.941639 -0.000000 -98.494007
RightHandThumb1 -24.326973 -0.000000 -32.862282
LeftUpLeg 11.432794 4.842308 11.106781
LeftLeg 82.638338 -0.000000 -0.000000
LeftFoot -39.476475 26.786981 -16.706999
LeftToeBase 22.730577 -0.000000 -0.000000
RightUpLeg 11.227845 3.443772 -10.678032
RightLeg 81.729180 -0.000000 -0.000000
RightFoot -38.561372 -29.148591 23.710850
RightToeBase 19.852066 -0.000000 -0.000000
785
root 26.897449 25.256826 -25.515256 -66.584121 91.301769 7.499352
Spine -50.109236 -0.285334 4.110935
Head -72.116035 5.050843 0.955435
LeftShoulder -22.842698 -59.454080 54.838855
LeftArm 29.657244 -41.783992 13.071366
LeftForeArm -26.634441 -0.000000 6.263893
LeftHand -4.760529 -0.000000 93.468315
LeftHandThumb1 -26.253704 0.000000 33.147579
RightShoulder -12.818997 25.786572 -39.050392
RightArm -1.653258 69.800980 -35.147116
RightForeArm -11.598648 -0.000000 9.646945
RightHand -2.922410 -0.000000 -98.542873
RightHandThumb1 -24.326973 -0.000000 -32.862282
LeftUpLeg 11.428825 4.851749 11.117511
LeftLeg 82.683830 -0.000000 -0.000000
LeftFoot -39.510849 26.782740 -16.699755
LeftToeBase 22.773870 -0.000000 -0.000000
RightUpLeg 11.220917 3.457382 -10.673651
RightLeg 81.778059 -0.000000 -0.000000
RightFoot -38.597030 -29.158852 23.684843
RightToeBase 20.017143 -0.000000 -0.000000
786
root 26.901564 25.246514 -25.520597 -67.939060 91.317047 6.102573
Spine -50.143101 -0.267723 4.099530
Head -72.016810 5.012780 1.013089
LeftShoulder -22.890174 -59.422552 54.851031
LeftArm 29.684312 -41.785796 13.028332
LeftForeArm -26.653279 -0.000000 6.321380
LeftHand -4.756265 -0.000000 93.512241
LeftHandThumb1 -26.253704 0.000000 33.147579
RightShoulder -12.862920 25.782215 -39.062398
RightArm -1.474313 69.814023 -34.937117
RightForeArm -11.580039 -0.000000 9.680551
RightHand -2.911244 -0.000000 -98.611359
RightHandThumb1 -24.326973 -0.000000 -32.862282
LeftUpLeg 11.374823 4.888485 11.082595
LeftLeg 82.723290 -0.000000 -0.000000
LeftFoot -39.549567 26.801839 -16.710204
LeftToeBase 22.801647 -0.000000 -0.000000
RightUpLeg 11.147229 3.488509 -10.706813
RightLeg 81.835158 -0.000000 -0.000000
RightFoot -38.610091 -29.167265 23.687302
RightToeBase 19.890313 -0.000000 -0.000000
